Results
version=1
nRows=19
nColumns=24
inDegrees=yes
endheader
time	pelvis_tilt	pelvis_list	pelvis_rotation	pelvis_tx	pelvis_ty	pelvis_tz	hip_flexion_r	hip_adduction_r	hip_rotation_r	knee_angle_r	ankle_angle_r	subtalar_angle_r	mtp_angle_r	hip_flexion_l	hip_adduction_l	hip_rotation_l	knee_angle_l	ankle_angle_l	subtalar_angle_l	mtp_angle_l	lumbar_extension	lumbar_bending	lumbar_rotation
      1.00800000	     -6.35236053	     -4.08415276	     -5.06831138	     -0.10865624	      1.00564238	      0.31089215	     -0.85375796	      8.82305598	      3.00839279	    -15.09840414	     15.20144933	     -0.05395664	     10.34160929	     26.98396390	     -4.46913313	    -10.94597096	      3.99139336	      4.18291712	      6.49481081	      3.75106141	     -1.44137047	      2.88167314	      9.76489667
      1.01216667	     -6.21010834	     -3.96180805	     -5.09431035	     -0.10294390	      1.00502803	      0.31064121	     -1.13507929	      8.65775999	      3.06741291	    -15.54083885	     15.46843618	     -0.00771516	     10.19193603	     26.86607075	     -4.29358958	    -10.58046226	      3.52483284	      3.90550919	      5.85210447	      4.13791689	     -1.56136197	      2.69684973	      9.82365888
      1.01633333	     -6.14172219	     -3.83595264	     -5.08078914	     -0.09719292	      1.00430892	      0.31036710	     -1.34209675	      8.51416083	      3.17905157	    -15.96961294	     15.64605898	     -0.22187195	      9.90425587	     26.86185642	     -4.10871496	    -10.21038880	      2.95651840	      3.67537868	      5.28640230	      4.90948070	     -1.55893813	      2.52409690	      9.79527504
      1.02050000	     -6.03685548	     -3.67898929	     -5.10207405	     -0.09144091	      1.00368281	      0.31014694	     -1.55180426	      8.33453028	      3.31716939	    -16.47597179	     15.82143022	     -0.37191141	      8.89208784	     26.83965295	     -3.91428085	    -10.08473530	      2.31079060	      3.43546065	      5.01200610	      7.88660020	     -1.62855711	      2.28526235	      9.77994090
      1.02466667	     -5.92843714	     -3.52842463	     -5.09835468	     -0.08567958	      1.00307300	      0.30988759	     -1.75056400	      8.16628595	      3.44251794	    -17.00973484	     15.97614683	     -0.55578127	      8.89283842	     26.79624388	     -3.71053210	     -9.79000763	      1.67803305	      3.14176542	      4.48421594	      7.92445264	     -1.69643879	      2.07725181	      9.79268908
      1.02883333	     -5.81445369	     -3.37195179	     -5.08006646	     -0.07989801	      1.00250993	      0.30961498	     -1.93870833	      7.99684033	      3.56660993	    -17.57176873	     16.05791370	     -0.79509553	      8.89247109	     26.74561997	     -3.49440389	     -9.45917374	      1.02938201	      2.79305204	      3.87725177	      7.98813653	     -1.76366804	      1.84795615	      9.76330672
      1.03300000	     -5.71284418	     -3.20349484	     -5.04670508	     -0.07409917	      1.00193165	      0.30932321	     -2.08890843	      7.82015311	      3.67359689	    -18.18330040	     16.11379878	     -1.04695850	      8.89619638	     26.70834870	     -3.25997759	     -9.08719685	      0.37005736	      2.39304867	      3.20215715	      8.07340923	     -1.80694869	      1.60556210	      9.73038520
      1.03716667	     -5.59908212	     -3.02782596	     -5.00520927	     -0.06828452	      1.00141894	      0.30901777	     -2.23120347	      7.63961373	      3.78345144	    -18.83422788	     16.12098169	     -1.32011995	      8.90762043	     26.65469975	     -3.01311903	     -8.70163456	     -0.29371454	      1.94814916	      2.48743217	      8.16984458	     -1.86710963	      1.35120087	      9.68658429
      1.04133333	     -5.49043214	     -2.85319616	     -4.94184039	     -0.06245728	      1.00092817	      0.30867112	     -2.34543962	      7.46413489	      3.86810747	    -19.52656306	     16.08502574	     -1.61327276	      8.93366267	     26.61024382	     -2.75704760	     -8.26908281	     -0.97149796	      1.48312472	      1.72790346	      8.28865638	     -1.91303686	      1.09899290	      9.63927170
      1.04550000	     -5.39419073	     -2.66073431	     -4.89585944	     -0.05662714	      1.00046093	      0.30833452	     -2.40777915	      7.27234714	      3.96199626	    -20.29510456	     16.00561227	     -1.89808105	      8.97176139	     26.57145633	     -2.49036512	     -7.87206270	     -1.64187036	      0.95790929	      0.96655601	      8.38709139	     -1.95024876	      0.83093068	      9.57658975
      1.04966667	     -5.30141943	     -2.46482722	     -4.82679495	     -0.05078664	      1.00002070	      0.30795301	     -2.44091899	      7.07876370	      4.01871784	    -21.10869047	     15.88049159	     -2.18533732	      9.03055466	     26.54079663	     -2.20975391	     -7.43436733	     -2.32494687	      0.43774104	      0.18257102	      8.48250351	     -1.97768078	      0.55430239	      9.50600150
      1.05383333	     -5.19612538	     -2.26128795	     -4.74795718	     -0.04493665	      0.99964563	      0.30754604	     -2.45632086	      6.87648047	      4.05087828	    -21.97948758	     15.70440437	     -2.46317115	      9.11762520	     26.49358478	     -1.91541440	     -6.99001444	     -3.00672218	     -0.08755160	     -0.60074778	      8.57128528	     -2.02142633	      0.26596282	      9.42736059
      1.05800000	     -5.10889912	     -2.05054179	     -4.66928897	     -0.03908990	      0.99928358	      0.30711823	     -2.41399121	      6.66586614	      4.05635651	    -22.91950238	     15.47885792	     -2.72484682	      9.23049877	     26.46876869	     -1.61565635	     -6.55946163	     -3.70108642	     -0.60267900	     -1.35596973	      8.64128743	     -2.04344750	     -0.02331517	      9.33868944
      1.06216667	     -5.02456675	     -1.82625779	     -4.58426305	     -0.03322836	      0.99897529	      0.30666700	     -2.33495657	      6.43976745	      4.03611105	    -23.91893279	     15.19572609	     -2.96515557	      9.36899664	     26.44313960	     -1.29916419	     -6.14175035	     -4.39398822	     -1.09957929	     -2.07817148	      8.68978339	     -2.06193428	     -0.33296226	      9.24027129
      1.06633333	     -4.93571136	     -1.60013733	     -4.48987139	     -0.02737379	      0.99870906	      0.30617393	     -2.22223896	      6.20495119	      3.96813861	    -24.98432412	     14.85058540	     -3.17771795	      9.55350421	     26.41235546	     -0.97560286	     -5.71172975	     -5.09253351	     -1.54862021	     -2.78293180	      8.72019826	     -2.09003899	     -0.63765596	      9.13068875
      1.07050000	     -4.84504429	     -1.36337858	     -4.39393236	     -0.02151347	      0.99850140	      0.30566646	     -2.07627713	      5.95340074	      3.87010063	    -26.10865238	     14.44681047	     -3.36010651	      9.77035087	     26.37942527	     -0.64296312	     -5.32165977	     -5.79851101	     -1.96155754	     -3.42148548	      8.72657270	     -2.11828373	     -0.96165849	      9.01539939
      1.07466667	     -4.75717708	     -1.12551158	     -4.29450437	     -0.01565671	      0.99833186	      0.30510207	     -1.88485888	      5.68775435	      3.71669594	    -27.30439757	     13.96441617	     -3.50151653	     10.09809281	     26.34141626	     -0.30329452	     -4.91749937	     -6.49641199	     -2.28903132	     -4.05377734	      8.70542278	     -2.14780571	     -1.25457751	      8.88879706
      1.07883333	     -4.67459363	     -0.87464062	     -4.18964983	     -0.00980189	      0.99821085	      0.30454034	     -1.65565412	      5.40572621	      3.54692183	    -28.54792099	     13.43009682	     -3.62180941	     10.43908766	     26.31468723	      0.04457072	     -4.57022505	     -7.21514227	     -2.60840854	     -4.59376573	      8.65670763	     -2.17294089	     -1.59503164	      8.74641167
      1.08300000	     -4.49518957	     -0.59459828	     -4.10848901	     -0.00392537	      0.99830938	      0.30397901	     -1.49803788	      5.06555709	      3.34736437	    -29.82933806	     12.73785468	     -3.71706669	     13.40547983	     26.15171461	      0.41969153	     -4.29185030	     -7.87963892	     -2.84775012	     -5.07742078	      8.08004988	     -2.32668201	     -1.97576779	      8.66668239
